<svg width="21" height="19" viewBox="0 0 21 19" fill="none" xmlns="http://www.w3.org/2000/svg">
<path d="M10.3511 17.7349L9.99655 18.0875C10.0904 18.1819 10.218 18.2349 10.3511 18.2349C10.4842 18.2349 10.6118 18.1819 10.7056 18.0875L10.3511 17.7349ZM2.11925 9.4576L1.76472 9.81018L1.76472 9.81018L2.11925 9.4576ZM9.01998 2.51875L8.66545 2.87133V2.87133L9.01998 2.51875ZM10.3511 3.85721L9.99655 4.20978C10.0904 4.30415 10.218 4.35721 10.3511 4.35721C10.4842 4.35721 10.6118 4.30415 10.7056 4.20978L10.3511 3.85721ZM11.6822 2.51875L11.3277 2.16617V2.16617L11.6822 2.51875ZM10.7056 17.3823L2.47378 9.10502L1.76472 9.81018L9.99655 18.0875L10.7056 17.3823ZM18.2284 9.10502L9.99655 17.3823L10.7056 18.0875L18.9374 9.81018L18.2284 9.10502ZM8.66545 2.87133L9.99655 4.20978L10.7056 3.50463L9.3745 2.16617L8.66545 2.87133ZM10.7056 4.20978L12.0367 2.87133L11.3277 2.16617L9.99655 3.50463L10.7056 4.20978ZM15.1325 0.581665C13.7049 0.581665 12.3363 1.15195 11.3277 2.16617L12.0367 2.87133C12.8582 2.04525 13.9719 1.58167 15.1325 1.58167V0.581665ZM19.5121 5.98817C19.5121 7.15774 19.05 8.27885 18.2284 9.10502L18.9374 9.81018C19.946 8.79605 20.5121 7.42118 20.5121 5.98817H19.5121ZM20.5121 5.98817C20.5121 3.00484 18.1062 0.581665 15.1325 0.581665V1.58167C17.5487 1.58167 19.5121 3.55193 19.5121 5.98817H20.5121ZM5.56961 1.58167C6.73025 1.58167 7.84391 2.04525 8.66545 2.87133L9.3745 2.16617C8.36586 1.15195 6.99725 0.581665 5.56961 0.581665V1.58167ZM1.19006 5.98817C1.19006 3.55193 3.15345 1.58167 5.56961 1.58167V0.581665C2.59598 0.581665 0.190063 3.00484 0.190063 5.98817H1.19006ZM2.47378 9.10502C1.65214 8.27885 1.19006 7.15774 1.19006 5.98817H0.190063C0.190063 7.42118 0.756169 8.79605 1.76472 9.81018L2.47378 9.10502Z" fill="#212121"/>
</svg>
