<svg width="22" height="20" viewBox="0 0 22 20" fill="none" xmlns="http://www.w3.org/2000/svg">
<path d="M2.16104 2.46897C3.32111 1.3087 4.87704 0.63006 6.51664 0.569224C8.15624 0.508388 9.75819 1.06986 11.001 2.14097C12.2428 1.07164 13.8426 0.510803 15.4803 0.570734C17.1179 0.630665 18.6724 1.30694 19.8327 2.46418C20.993 3.62141 21.6733 5.1742 21.7375 6.81166C21.8018 8.44913 21.2451 10.0504 20.179 11.295L12.414 19.085C12.0573 19.4418 11.5788 19.6507 11.0746 19.6696C10.5703 19.6885 10.0775 19.5161 9.69504 19.187L9.58504 19.086L1.82104 11.295C0.755532 10.0515 0.198623 8.45168 0.261658 6.81535C0.324694 5.17903 1.00303 3.62679 2.16104 2.46897ZM3.57504 3.88297C2.75729 4.70096 2.2859 5.80242 2.25871 6.95874C2.23153 8.11507 2.65063 9.23746 3.42904 10.093L3.57504 10.247L11 17.672L16.303 12.368L12.768 8.83297L11.708 9.89297C11.4295 10.1716 11.0988 10.3927 10.7348 10.5436C10.3709 10.6944 9.98075 10.7721 9.58675 10.7722C8.79103 10.7724 8.02783 10.4565 7.46504 9.89397C6.90225 9.33145 6.58598 8.5684 6.58579 7.77268C6.5856 6.97696 6.90152 6.21376 7.46404 5.65097L9.56604 3.54797C8.72951 2.88035 7.68245 2.53266 6.61273 2.5673C5.54301 2.60194 4.52063 3.01663 3.72904 3.73697L3.57504 3.88297ZM12.061 6.71097C12.2486 6.5235 12.5029 6.41819 12.768 6.41819C13.0332 6.41819 13.2875 6.5235 13.475 6.71097L17.717 10.953L18.425 10.247C19.2565 9.41611 19.7299 8.29289 19.7439 7.11753C19.7579 5.94218 19.3115 4.80799 18.5001 3.95753C17.6887 3.10706 16.5767 2.60784 15.402 2.56663C14.2273 2.52541 13.0831 2.94547 12.214 3.73697L12.061 3.88297L8.87904 7.06497C8.70571 7.23819 8.60202 7.46902 8.58764 7.71364C8.57326 7.95826 8.6492 8.19965 8.80104 8.39197L8.87904 8.47897C9.05226 8.6523 9.28309 8.756 9.52771 8.77038C9.77233 8.78476 10.0137 8.70882 10.206 8.55697L10.293 8.47897L12.061 6.71097Z" fill="#424242"/>
</svg>
