<svg width="22" height="20" viewBox="0 0 22 20" fill="none" xmlns="http://www.w3.org/2000/svg">
<path d="M18 19.875L4 19.875C3.73479 19.875 3.48043 19.7696 3.2929 19.5821C3.10536 19.3946 3 19.1402 3 18.875L3 9.87498L8.43486e-07 9.87498L10.327 0.48698C10.5111 0.319458 10.7511 0.226623 11 0.226623C11.2489 0.226623 11.4889 0.319458 11.673 0.48698L22 9.87498L19 9.87498L19 18.875C19 19.1402 18.8946 19.3946 18.7071 19.5821C18.5196 19.7696 18.2652 19.875 18 19.875ZM5 17.875L17 17.875L17 8.03198L11 2.57798L5 8.03198L5 17.875Z" fill="white"/>
</svg>
