<svg width="21" height="24" viewBox="0 0 21 24" fill="none" xmlns="http://www.w3.org/2000/svg">
    <path fill-rule="evenodd" clip-rule="evenodd"
        d="M10.4 1.55005C6.39594 1.55005 3.15 4.79598 3.15 8.80005L3.15 16.05L17.65 16.05L17.65 8.80005C17.65 4.79598 14.4041 1.55005 10.4 1.55005ZM19.15 16.05L19.15 8.80005C19.15 3.96756 15.2325 0.0500475 10.4 0.0500479C5.56751 0.0500483 1.65 3.96756 1.65 8.80005L1.65 16.05L1.39876e-06 16.05L1.5299e-06 17.55L20.8 17.55L20.8 16.05L19.15 16.05ZM6.45 20L6.45 19.2L7.95 19.2L7.95 20C7.95 21.3531 9.0469 22.45 10.4 22.45C11.7531 22.45 12.85 21.3531 12.85 20L12.85 19.2L14.35 19.2L14.35 20C14.35 22.1816 12.5815 23.95 10.4 23.95C8.21848 23.95 6.45 22.1816 6.45 20Z"
        fill="white" />
</svg>
