<svg width="16" height="21" viewBox="0 0 16 21" fill="none" xmlns="http://www.w3.org/2000/svg">
<path d="M1.83588e-06 21C1.65039e-06 18.8783 0.842856 16.8435 2.34315 15.3432C3.84344 13.8429 5.87827 13 8 13C10.1217 13 12.1566 13.8429 13.6569 15.3432C15.1571 16.8435 16 18.8783 16 21L14 21C14 19.4087 13.3679 17.8826 12.2426 16.7574C11.1174 15.6322 9.5913 15 8 15C6.4087 15 4.88258 15.6322 3.75736 16.7574C2.63214 17.8826 2 19.4087 2 21L1.83588e-06 21ZM8 12C4.685 12 2 9.31503 2 6.00003C2 2.68503 4.685 3.0108e-05 8 2.98182e-05C11.315 2.95284e-05 14 2.68503 14 6.00003C14 9.31503 11.315 12 8 12ZM8 10C10.21 10 12 8.21003 12 6.00003C12 3.79003 10.21 2.00003 8 2.00003C5.79 2.00003 4 3.79003 4 6.00003C4 8.21003 5.79 10 8 10Z" fill="#424242"/>
</svg>
