<svg width="20" height="20" viewBox="0 0 20 20" fill="none" xmlns="http://www.w3.org/2000/svg">
<path d="M9 9.00004L9 5.00004L11 5.00004L11 9.00004L15 9.00004L15 11L11 11L11 15L9 15L9 11L5 11L5 9.00004L9 9.00004ZM10 20C4.477 20 1.35706e-06 15.523 8.74228e-07 10C3.91392e-07 4.47704 4.477 3.77556e-05 10 3.72727e-05C15.523 3.67899e-05 20 4.47704 20 10C20 15.523 15.523 20 10 20ZM10 18C12.1217 18 14.1566 17.1572 15.6569 15.6569C17.1571 14.1566 18 12.1218 18 10C18 7.8783 17.1571 5.84347 15.6569 4.34318C14.1566 2.84289 12.1217 2.00004 10 2.00004C7.87827 2.00004 5.84344 2.84289 4.34315 4.34318C2.84286 5.84347 2 7.87831 2 10C2 12.1218 2.84286 14.1566 4.34315 15.6569C5.84344 17.1572 7.87827 18 10 18Z" fill="#424242"/>
</svg>
