<svg width="11" height="11" viewBox="0 0 11 11" fill="none" xmlns="http://www.w3.org/2000/svg">
<path d="M4.54308 1.78031C4.88376 1.19539 5.0541 0.902936 5.27601 0.804542C5.46959 0.718707 5.69044 0.718707 5.88402 0.804542C6.10593 0.902936 6.27627 1.19539 6.61695 1.78031L7.25356 2.8733C7.3516 3.04162 7.40062 3.12577 7.4664 3.19274C7.5247 3.2521 7.59248 3.30135 7.66695 3.33845C7.75097 3.38032 7.84616 3.40094 8.03653 3.44216L9.27275 3.70986C9.93432 3.85312 10.2651 3.92475 10.4272 4.10539C10.5687 4.26297 10.6369 4.47301 10.6151 4.68364C10.5901 4.92509 10.3646 5.17747 9.91362 5.68223L9.07084 6.62544C8.94106 6.77068 8.87616 6.84331 8.8328 6.92657C8.79436 7.00036 8.76848 7.08004 8.7562 7.16233C8.74234 7.25518 8.75215 7.35207 8.77177 7.54587L8.89919 8.80431C8.96737 9.47776 9.00147 9.81449 8.87978 10.0245C8.77362 10.2078 8.59495 10.3376 8.38788 10.3819C8.15052 10.4327 7.84081 10.2963 7.22139 10.0233L6.06392 9.51324C5.88567 9.43469 5.79655 9.39542 5.70397 9.3799C5.62191 9.36615 5.53813 9.36615 5.45607 9.3799C5.36348 9.39542 5.27436 9.43469 5.09612 9.51324L3.93864 10.0233C3.31922 10.2963 3.00951 10.4327 2.77215 10.3819C2.56509 10.3376 2.38642 10.2078 2.28026 10.0245C2.15857 9.81449 2.19266 9.47776 2.26085 8.80431L2.38826 7.54587C2.40788 7.35207 2.41769 7.25518 2.40384 7.16233C2.39156 7.08004 2.36567 7.00036 2.32723 6.92657C2.28387 6.84331 2.21898 6.77068 2.0892 6.62544L1.24642 5.68223C0.79541 5.17747 0.569905 4.92509 0.5449 4.68364C0.523086 4.47301 0.591332 4.26297 0.732787 4.10539C0.894937 3.92475 1.22572 3.85312 1.88728 3.70986L3.12351 3.44216C3.31388 3.40094 3.40906 3.38032 3.49308 3.33845C3.56755 3.30135 3.63533 3.2521 3.69363 3.19274C3.75942 3.12577 3.80844 3.04162 3.90647 2.8733L4.54308 1.78031Z" fill="#FFD600"/>
</svg>
