<svg width="11" height="11" viewBox="0 0 11 11" fill="none" xmlns="http://www.w3.org/2000/svg">
<path d="M4.54314 1.78031C4.88383 1.19539 5.05417 0.902936 5.27607 0.804542C5.46965 0.718707 5.6905 0.718707 5.88408 0.804542C6.10599 0.902936 6.27633 1.19539 6.61701 1.78031L7.25363 2.8733C7.35166 3.04162 7.40068 3.12577 7.46646 3.19274C7.52477 3.2521 7.59254 3.30135 7.66701 3.33845C7.75103 3.38032 7.84622 3.40094 8.03659 3.44216L9.27282 3.70986C9.93438 3.85312 10.2652 3.92475 10.4273 4.10539C10.5688 4.26297 10.637 4.47301 10.6152 4.68364C10.5902 4.92509 10.3647 5.17747 9.91368 5.68223L9.0709 6.62544C8.94112 6.77068 8.87623 6.84331 8.83286 6.92657C8.79443 7.00036 8.76854 7.08004 8.75626 7.16233C8.7424 7.25518 8.75221 7.35207 8.77183 7.54587L8.89925 8.80431C8.96744 9.47776 9.00153 9.81449 8.87984 10.0245C8.77368 10.2078 8.59501 10.3376 8.38795 10.3819C8.15059 10.4327 7.84088 10.2963 7.22145 10.0233L6.06398 9.51324C5.88573 9.43469 5.79661 9.39542 5.70403 9.3799C5.62197 9.36615 5.53819 9.36615 5.45613 9.3799C5.36355 9.39542 5.27442 9.43469 5.09618 9.51324L3.9387 10.0233C3.31928 10.2963 3.00957 10.4327 2.77221 10.3819C2.56515 10.3376 2.38648 10.2078 2.28032 10.0245C2.15863 9.81449 2.19272 9.47776 2.26091 8.80431L2.38832 7.54587C2.40794 7.35207 2.41776 7.25518 2.4039 7.16233C2.39162 7.08004 2.36573 7.00036 2.3273 6.92657C2.28393 6.84331 2.21904 6.77068 2.08926 6.62544L1.24648 5.68223C0.795471 5.17747 0.569966 4.92509 0.544961 4.68364C0.523147 4.47301 0.591393 4.26297 0.732848 4.10539C0.894998 3.92475 1.22578 3.85312 1.88734 3.70986L3.12357 3.44216C3.31394 3.40094 3.40912 3.38032 3.49314 3.33845C3.56761 3.30135 3.63539 3.2521 3.6937 3.19274C3.75948 3.12577 3.8085 3.04162 3.90653 2.8733L4.54314 1.78031Z" fill="#F5F5F5"/>
</svg>
